<?xml version="1.0" encoding="utf-8"?>
<!-- Generator: Adobe Illustrator 25.0.1, SVG Export Plug-In . SVG Version: 6.00 Build 0)  -->
<svg version="1.1" id="Ebene_1" xmlns="http://www.w3.org/2000/svg" xmlns:xlink="http://www.w3.org/1999/xlink" x="0px" y="0px"
	 viewBox="0 0 27 27" style="enable-background:new 0 0 27 27;" xml:space="preserve">
<style type="text/css">
	.st0{fill:#FFFFFF;}
</style>
<path class="st0" d="M24.3,15.2H11.8V2.7c0-0.5-0.4-0.9-0.8-0.9c0,0-0.1,0-0.1,0C4.6,2.7-0.2,8.2,0,14.8c0.2,6.5,5.7,12,12.2,12.2
	c0.1,0,0.3,0,0.4,0c6.4,0,11.6-4.7,12.5-10.9C25.2,15.6,24.8,15.2,24.3,15.2z M12.7,25.3c-0.1,0-0.2,0-0.4,0
	C6.6,25.1,1.9,20.4,1.7,14.7c-0.2-5.3,3.4-9.8,8.4-11v13.2h13.2C22.2,21.7,17.7,25.3,12.7,25.3z M15.2,0C15.2,0,15.2,0,15.2,0
	c-0.5,0-0.9,0.4-0.9,0.9v11.8h11.8c0.5,0,0.9-0.4,0.9-0.9C26.6,5.5,21.5,0.4,15.2,0z M16,11V1.8c4.7,0.7,8.5,4.5,9.2,9.2H16z"/>
</svg>
