<?xml version="1.0" encoding="utf-8"?>
<!-- Generator: Adobe Illustrator 25.0.1, SVG Export Plug-In . SVG Version: 6.00 Build 0)  -->
<svg version="1.1" id="Ebene_1" xmlns="http://www.w3.org/2000/svg" xmlns:xlink="http://www.w3.org/1999/xlink" x="0px" y="0px"
	 width="66.9px" height="28px" viewBox="0 0 66.9 28" style="enable-background:new 0 0 66.9 28;" xml:space="preserve">
<style type="text/css">
	.st0{fill:#FFFFFF;}
</style>
<g>
	<g>
		<polygon class="st0" points="53.7,17 53.7,12 48.8,14.1 		"/>
	</g>
	<g>
		<polygon class="st0" points="53.7,11.7 53.7,5.8 49,13.7 		"/>
	</g>
	<g>
		<polygon class="st0" points="54,5.8 54,11.7 58.8,13.8 		"/>
	</g>
	<g>
		<polygon class="st0" points="54,12 54,17 58.9,14.1 		"/>
	</g>
	<g>
		<polygon class="st0" points="53.7,22 53.7,18 48.9,15.2 		"/>
	</g>
	<g>
		<polygon class="st0" points="54,22 58.9,15.2 54,18 		"/>
	</g>
	<g>
		<path class="st0" d="M17.9,17.1c0-2.2-1.4-3.2-3.5-3.8l-0.8-0.2V8.8c1.2,0.2,2,0.9,2.1,1.9c0,0.1,0.1,0.2,0.3,0.2h1.5
			c0.2,0,0.3-0.1,0.3-0.3c-0.2-2-1.9-3.3-4.1-3.5V6.1c0-0.1-0.1-0.3-0.3-0.3h-0.9c-0.1,0-0.3,0.1-0.3,0.3v1.1
			C9.9,7.3,8.1,8.6,8.1,11c0,2.2,1.6,3.2,3.3,3.6l0.8,0.2v4.6c-1.4-0.2-2.2-1-2.4-2c0-0.1-0.1-0.2-0.3-0.2H8c-0.2,0-0.3,0.1-0.3,0.3
			c0.1,1.8,1.5,3.4,4.4,3.6v1c0,0.1,0.1,0.3,0.3,0.3h0.9c0.1,0,0.3-0.1,0.3-0.3l0-1C16.1,20.9,17.9,19.5,17.9,17.1z M12.2,12.8
			c-0.2-0.1-0.3-0.1-0.5-0.2c-1.1-0.4-1.6-1-1.6-1.8c0-1.2,0.9-1.8,2.1-2V12.8z M13.5,19.4v-4.3c0.1,0,0.2,0.1,0.3,0.1
			c1.5,0.5,2,1.1,2,2.1C15.9,18.5,14.9,19.3,13.5,19.4z"/>
	</g>
	<g>
		<path class="st0" d="M30.7,10.7l5.7,3.5h-3.1l-2.6-1.5V10.7z M33.2,14.1h3.1l-5.7,3.5v-2L33.2,14.1z"/>
	</g>
	<g>
		<path class="st0" d="M12.8,26.3C5.8,26.3,0,20.6,0,13.5C0,6.4,5.8,0.7,12.8,0.7s12.8,5.8,12.8,12.8C25.7,20.6,19.9,26.3,12.8,26.3
			z M12.8,2.2C6.6,2.2,1.5,7.3,1.5,13.5c0,6.2,5.1,11.3,11.3,11.3s11.3-5.1,11.3-11.3C24.2,7.3,19.1,2.2,12.8,2.2z"/>
	</g>
	<g>
		<path class="st0" d="M54,26.9c-7.1,0-12.8-5.8-12.8-12.8S47,1.3,54,1.3S66.9,7,66.9,14.1S61.1,26.9,54,26.9z M54,2.8
			c-6.2,0-11.3,5.1-11.3,11.3S47.8,25.4,54,25.4s11.3-5.1,11.3-11.3S60.3,2.8,54,2.8z"/>
	</g>
</g>
</svg>
