<?xml version="1.0" encoding="utf-8"?>
<!-- Generator: Adobe Illustrator 25.0.1, SVG Export Plug-In . SVG Version: 6.00 Build 0)  -->
<svg version="1.1" id="Ebene_1" xmlns="http://www.w3.org/2000/svg" xmlns:xlink="http://www.w3.org/1999/xlink" x="0px" y="0px"
	 width="50px" height="28px" viewBox="0 0 50 28" style="enable-background:new 0 0 50 28;" xml:space="preserve">
<style type="text/css">
	.st0{fill:#FFFFFF;}
	.st1{fill:#FFFFFF;enable-background:new    ;}
	.st2{fill:#ACACAC;enable-background:new    ;}
	.st3{fill:#ACACAC;}
</style>
<path class="st0" d="M12.3,6.2l-0.7,0.7C10.8,6.4,9.9,6.4,9.3,7C8.7,7.6,8.8,8.4,9.3,9.4c0.3,0.7,0.3,1.3,0,1.7
	c-0.4,0.4-1,0.4-1.5-0.1C7.3,10.5,7.1,10,7,9.6L6.3,9.9c0.1,0.4,0.4,1,0.8,1.4L6.4,12l0.4,0.4l0.7-0.7c0.9,0.6,1.8,0.5,2.3-0.1
	c0.6-0.6,0.6-1.4,0.2-2.4C9.7,8.4,9.7,7.9,10,7.5c0.3-0.3,0.8-0.4,1.4,0.1C11.8,8.1,12,8.6,12,8.8l0.6-0.3c-0.1-0.3-0.3-0.7-0.7-1.2
	l0.7-0.7L12.3,6.2z"/>
<path class="st0" d="M24.9,1.2l-0.1-0.1c-1.5-0.8-2.9,0.3-4.4,1.5c-1,0.8-2,1.5-3.1,1.9v-2c0-0.2-0.1-0.3-0.2-0.4l-0.4-0.4
	c-0.1-0.1-0.3-0.2-0.4-0.2h-6c-0.2,0-0.3,0.1-0.4,0.2L1.5,9.9c-0.1,0.1-0.2,0.3-0.2,0.4c0,0.2,0.1,0.3,0.2,0.4l6.7,6.3
	c0.1,0.1,0.3,0.2,0.4,0.2c0.2,0,0.3-0.1,0.4-0.2l8.1-8.1c0.1-0.1,0.2-0.3,0.2-0.4V5c1.3-0.3,2.4-1.2,3.4-2c1.4-1.1,2.5-2,3.7-1.5
	l0.4,3l0.5-0.1L24.9,1.2z M16.9,8.5c0,0.1,0,0.1-0.1,0.1l-8.1,8.1c-0.1,0.1-0.2,0.1-0.3,0l-6.7-6.3c0,0-0.1-0.1-0.1-0.1
	s0-0.1,0.1-0.1l8.4-8.4c0,0,0.1-0.1,0.1-0.1h6c0.1,0,0.1,0,0.1,0.1l0.4,0.4c0,0,0.1,0.1,0.1,0.1v2.1c-0.4,0.1-0.9,0.1-1.3,0
	c0,0,0,0,0-0.1c0-0.7-0.6-1.3-1.3-1.3S13,3.8,13,4.5s0.6,1.3,1.3,1.3c0.5,0,1-0.3,1.2-0.8c0.2,0,0.5,0.1,0.7,0.1
	c0.2,0,0.5,0,0.7-0.1V8.5z M14.3,4.6c0.3,0.1,0.5,0.2,0.8,0.3c-0.2,0.3-0.4,0.4-0.8,0.4c-0.5,0-0.9-0.4-0.9-0.9
	c0-0.4,0.3-0.8,0.7-0.9C14,3.7,13.9,3.9,13.9,4C13.9,4.4,14.2,4.6,14.3,4.6z M14.5,4.2c0,0-0.1-0.1-0.1-0.1c0,0,0.1-0.2,0.4-0.3
	c0.2,0.2,0.4,0.4,0.4,0.7C15,4.4,14.7,4.3,14.5,4.2z"/>
<path id="path3094" class="st1" d="M16.5,14.3l8.6,5.1v-9V0L16.5,14.3z"/>
<path id="path3110" class="st1" d="M25.1,0v10.4v9l8.6-5.1L25.1,0z"/>
<path id="path3126" class="st2" d="M16.5,15.9L25.1,28v-7L16.5,15.9z"/>
<path id="path3142" class="st1" d="M25.1,21v7l8.6-12.1L25.1,21z"/>
<polygon class="st3" points="25.1,0 16.5,14.3 25.1,19.4 "/>
</svg>
