<svg width="20" height="28" viewBox="0 0 20 28" fill="none" xmlns="http://www.w3.org/2000/svg">
<path d="M11.6602 1.20805C11.4324 0.411797 10.7165 0 9.9983 0C9.29659 0 8.59261 0.39375 8.33977 1.20805C5.68239 9.83555 0 12.18 0 18.2607C0 23.6441 4.47273 28 10 28C15.5273 28 20 23.6441 20 18.2607C20 12.1494 14.3301 9.87492 11.6602 1.20805ZM10 26.25C5.48864 26.25 1.81818 22.6658 1.81818 18.2607C1.81818 15.616 3.125 13.8135 4.93409 11.3187C6.59205 9.03219 8.64659 6.19828 10.0011 1.97203C11.3551 6.21141 13.4136 9.04367 15.075 11.328C16.8784 13.8097 18.1818 15.6023 18.1818 18.2607C18.1818 22.6658 14.5114 26.25 10 26.25ZM10 22.75C7.49318 22.75 5.45455 20.7873 5.45455 18.375C5.45455 17.8916 5.04773 17.5 4.54545 17.5C4.04318 17.5 3.63636 17.8916 3.63636 18.375C3.63636 21.752 6.49148 24.5 10 24.5C10.5023 24.5 10.9091 24.1084 10.9091 23.625C10.9091 23.1416 10.5023 22.75 10 22.75Z" fill="#BDCBDA"/>
</svg>
