<svg width="25" height="16" viewBox="0 0 25 16" fill="none" xmlns="http://www.w3.org/2000/svg">
<path d="M24.4052 11.8037L20.3461 15.8628C20.1632 16.0457 19.8667 16.0457 19.6837 15.8628L15.6246 11.8037C15.4417 11.6208 15.4417 11.3243 15.6246 11.1413L16.2833 10.4826C16.4677 10.2983 16.767 10.2999 16.9493 10.4863L19.0782 12.6627V3.94091H11.1171C11.0555 3.94091 10.9946 3.9288 10.9378 3.90526C10.881 3.88172 10.8294 3.84722 10.7859 3.80372L9.84917 2.867C9.5541 2.57193 9.76307 2.06747 10.1803 2.06747H20.0149C20.5323 2.06747 20.9517 2.48685 20.9517 3.00419V12.6627L23.0805 10.4863C23.2628 10.3 23.5622 10.2983 23.7465 10.4827L24.4053 11.1414C24.5882 11.3243 24.5881 11.6208 24.4052 11.8037ZM14.2565 12.1963C14.1687 12.1085 14.0495 12.0591 13.9253 12.0591H5.96417V3.33731L8.09305 5.5137C8.27536 5.70006 8.57472 5.7017 8.75906 5.51737L9.41777 4.85866C9.60066 4.67576 9.60066 4.37921 9.41777 4.19628L5.35866 0.137171C5.17576 -0.0457235 4.87921 -0.0457235 4.69628 0.137171L0.637171 4.19628C0.454276 4.37918 0.454276 4.67573 0.637171 4.85866L1.29588 5.51737C1.48022 5.7017 1.77958 5.70006 1.96188 5.5137L4.09073 3.33731V12.9958C4.09073 13.5132 4.51011 13.9326 5.02745 13.9326H14.8621C15.2793 13.9326 15.4883 13.4281 15.1932 13.133L14.2565 12.1963Z" fill="#88A9FF"/>
</svg>
