<?xml version="1.0" encoding="utf-8"?>
<!-- Generator: Adobe Illustrator 25.2.0, SVG Export Plug-In . SVG Version: 6.00 Build 0)  -->
<svg version="1.1" id="Ebene_1" xmlns="http://www.w3.org/2000/svg" xmlns:xlink="http://www.w3.org/1999/xlink" x="0px" y="0px"
	 viewBox="0 0 100 100" style="enable-background:new 0 0 100 100;" xml:space="preserve">
<g>
	<path style="fill:#FFFFFF;" d="M50.5,0C23.2,0,1,22.2,1,49.5S23.2,99,50.5,99S100,76.8,100,49.5S77.8,0,50.5,0z M50.5,95.5
		c-25.4,0-46-20.6-46-46s20.6-46,46-46s46,20.6,46,46S75.9,95.5,50.5,95.5z"/>
	<path style="fill:#FFFFFF;" d="M56.2,44.2c-7.1-3.4-13.2-6.3-12.6-12.9c0.4-4.7,6.5-6.4,10.5-6.1c6,0.4,10.8,3.1,15.5,8.6l2.7-2.3
		c-5.4-6.3-10.9-9.4-17.9-9.9c-0.7-0.1-1.5-0.1-2.3,0c-5.8-0.1-12.1,2.1-16.1,5.8c-2.9,2.7-4.5,6-4.7,9.6
		c-0.4,11,8.6,14.9,16.5,18.3c7,3,13,5.6,12.8,12.4c0,1.3-0.6,2.4-1.6,3.4c-2.3,2.1-6.3,3.1-9.3,3.1c-6.6-0.2-12.5-3.2-17.5-8.7
		l-2.6,2.3c5.7,6.3,12.4,9.6,20,9.8c0,0,0,0,0,0c0.1,0,0.3,0,0.4,0c0,0,0,0,0,0c0.1,0,0.2,0,0.3,0c8.9,0,21.3-4.3,22.2-14.3
		C73.5,52.5,64.3,48.1,56.2,44.2z M63.3,71c0.4-1,0.7-2,0.7-3c0.3-9.1-7.4-12.5-14.9-15.7c-7.5-3.3-14.7-6.3-14.4-15
		c0.1-3.3,2-5.7,3.5-7.1c0.8-0.7,1.7-1.3,2.6-1.9c-0.4,0.9-0.7,1.8-0.8,2.8c-0.8,9,7,12.7,14.6,16.4c7.7,3.7,15.1,7.2,14.3,15.9
		C68.7,66.6,66.4,69.2,63.3,71z"/>
</g>
</svg>
