<?xml version="1.0" encoding="utf-8"?>
<!-- Generator: Adobe Illustrator 25.0.1, SVG Export Plug-In . SVG Version: 6.00 Build 0)  -->
<svg version="1.1" id="Ebene_1" xmlns="http://www.w3.org/2000/svg" xmlns:xlink="http://www.w3.org/1999/xlink" x="0px" y="0px"
	 viewBox="0 0 44 30" style="enable-background:new 0 0 44 30;" xml:space="preserve">
<style type="text/css">
	.st0{clip-path:url(#SVGID_2_);}
	.st1{fill:#FFFFFF;}
	.st2{fill:#C1BB86;}
</style>
<g>
	<defs>
		<rect id="SVGID_1_" y="3" width="27" height="27"/>
	</defs>
	<clipPath id="SVGID_2_">
		<use xlink:href="#SVGID_1_"  style="overflow:visible;"/>
	</clipPath>
	<g class="st0">
		<path class="st1" d="M24.3,18.2H11.8V5.7c0-0.5-0.4-0.9-0.8-0.9c0,0-0.1,0-0.1,0C4.6,5.7-0.2,11.2,0,17.8
			c0.2,6.5,5.7,12,12.2,12.2c0.1,0,0.3,0,0.4,0c6.4,0,11.6-4.7,12.5-10.9C25.2,18.6,24.8,18.2,24.3,18.2z M12.7,28.3
			c-0.1,0-0.2,0-0.4,0C6.6,28.1,1.9,23.4,1.7,17.7c-0.2-5.3,3.4-9.8,8.4-11v13.2h13.2C22.2,24.7,17.7,28.3,12.7,28.3z M15.2,3
			C15.2,3,15.2,3,15.2,3c-0.5,0-0.9,0.4-0.9,0.9v11.8h11.8c0.5,0,0.9-0.4,0.9-0.9C26.6,8.5,21.5,3.4,15.2,3z M16,14V4.8
			c4.7,0.7,8.5,4.5,9.2,9.2H16z"/>
	</g>
</g>
<path class="st2" d="M20,0h23c0.6,0,1,0.4,1,1v9c0,0.6-0.4,1-1,1H20c-0.6,0-1-0.4-1-1V1C19,0.4,19.4,0,20,0z"/>
<path class="st1" d="M22.6,2.6c0.5,0,0.9,0.1,1.2,0.3c0.3,0.2,0.6,0.5,0.8,0.8l-0.5,0.4c-0.2-0.3-0.4-0.6-0.7-0.7
	c-0.2-0.1-0.5-0.2-0.9-0.2c-0.4,0-0.7,0.1-0.9,0.3s-0.3,0.4-0.3,0.6c0,0.2,0.1,0.4,0.2,0.5c0.1,0.1,0.4,0.2,0.7,0.3l1.1,0.3
	c0.5,0.1,0.9,0.3,1.1,0.5c0.2,0.2,0.3,0.5,0.3,0.8c0,0.3-0.1,0.6-0.3,0.8c-0.2,0.2-0.4,0.4-0.7,0.5C23.4,8,23,8.1,22.6,8.1
	c-0.6,0-1-0.1-1.4-0.3c-0.4-0.2-0.7-0.5-0.9-0.8l0.6-0.5c0.2,0.3,0.4,0.6,0.7,0.7c0.3,0.2,0.7,0.3,1.1,0.3c0.4,0,0.7-0.1,1-0.2
	C23.9,7.1,24,6.9,24,6.6c0-0.2-0.1-0.3-0.2-0.5c-0.1-0.1-0.3-0.2-0.6-0.3l-1.2-0.3c-0.5-0.1-0.8-0.3-1-0.5c-0.2-0.2-0.3-0.5-0.3-0.8
	c0-0.3,0.1-0.5,0.2-0.8C21,3.2,21.2,3,21.5,2.9C21.8,2.7,22.2,2.6,22.6,2.6z M28.1,2.6c0.5,0,0.9,0.1,1.3,0.3
	c0.4,0.2,0.7,0.5,0.8,0.9c0.2,0.4,0.3,0.9,0.3,1.4s-0.1,1-0.3,1.4c-0.2,0.4-0.5,0.7-0.8,0.9c-0.4,0.2-0.8,0.3-1.3,0.3
	c-0.5,0-0.9-0.1-1.3-0.3c-0.4-0.2-0.6-0.5-0.8-0.9c-0.2-0.4-0.3-0.9-0.3-1.4s0.1-1,0.3-1.4c0.2-0.4,0.5-0.7,0.8-0.9
	C27.2,2.8,27.6,2.6,28.1,2.6z M28.1,3.2c-0.5,0-1,0.2-1.3,0.6c-0.3,0.4-0.5,0.9-0.5,1.6c0,0.7,0.2,1.2,0.5,1.6
	c0.3,0.4,0.8,0.6,1.3,0.6c0.5,0,1-0.2,1.3-0.6c0.3-0.4,0.5-0.9,0.5-1.6c0-0.7-0.2-1.2-0.5-1.6C29.1,3.4,28.7,3.2,28.1,3.2z
	 M34.1,2.6c0.5,0,0.9,0.1,1.3,0.3c0.4,0.2,0.7,0.5,0.8,0.9c0.2,0.4,0.3,0.9,0.3,1.4s-0.1,1-0.3,1.4c-0.2,0.4-0.5,0.7-0.8,0.9
	C35,8,34.6,8.1,34.1,8.1c-0.5,0-0.9-0.1-1.3-0.3c-0.4-0.2-0.6-0.5-0.8-0.9c-0.2-0.4-0.3-0.9-0.3-1.4s0.1-1,0.3-1.4
	c0.2-0.4,0.5-0.7,0.8-0.9C33.2,2.8,33.6,2.6,34.1,2.6z M34.1,3.2c-0.5,0-1,0.2-1.3,0.6c-0.3,0.4-0.5,0.9-0.5,1.6
	c0,0.7,0.2,1.2,0.5,1.6c0.3,0.4,0.8,0.6,1.3,0.6c0.5,0,1-0.2,1.3-0.6c0.3-0.4,0.5-0.9,0.5-1.6c0-0.7-0.2-1.2-0.5-1.6
	C35.1,3.4,34.7,3.2,34.1,3.2z M42.1,2.7V8h-0.8l-2.2-3.5l-0.6-1h0l0,0.8V8H38V2.7h0.8l2.2,3.5l0.6,1h0l0-0.8V2.7H42.1z"/>
</svg>
