<svg width="44" height="30" viewBox="0 0 44 30" fill="none" xmlns="http://www.w3.org/2000/svg">
<g clip-path="url(#clip0)">
<path d="M24.325 18.1875H11.8117V5.67416C11.8117 5.20852 11.433 4.81934 10.9816 4.81934C10.9452 4.81934 10.9078 4.82197 10.8704 4.82725C4.59127 5.71424 -0.20967 11.1965 0.0060138 17.7693C0.220643 24.31 5.68973 29.7785 12.2298 29.9931C12.3717 29.9979 12.5141 30 12.6554 30C19.0384 30 24.3039 25.2718 25.1719 19.1283C25.2421 18.6299 24.8281 18.1875 24.325 18.1875ZM12.6554 28.3125C12.5325 28.3125 12.4086 28.3104 12.2852 28.3062C6.62998 28.1205 1.87808 23.3687 1.69246 17.7134C1.52002 12.4405 5.08539 7.86369 10.1242 6.68244V19.875H23.3157C22.1618 24.7492 17.7437 28.3125 12.6554 28.3125ZM15.2288 3.00211C15.2104 3.00053 15.1919 3 15.174 3C14.7173 3 14.3429 3.39234 14.3429 3.85588V15.6562H26.1433C26.6253 15.6562 27.0303 15.2507 26.9976 14.7703C26.5625 8.47066 21.5285 3.43664 15.2288 3.00211ZM16.0304 13.9688V4.7877C20.737 5.51596 24.4827 9.26221 25.2115 13.9688H16.0304Z" fill="#727E8A"/>
</g>
<rect x="19" width="25" height="11" rx="1" fill="#C1BB86"/>
<path d="M22.56 2.64C23.024 2.64 23.424 2.736 23.76 2.928C24.096 3.11467 24.376 3.392 24.6 3.76L24.064 4.176C23.8667 3.83467 23.6427 3.59467 23.392 3.456C23.1467 3.312 22.848 3.24 22.496 3.24C22.0693 3.24 21.7573 3.32533 21.56 3.496C21.3627 3.66667 21.264 3.87467 21.264 4.12C21.264 4.30667 21.3227 4.472 21.44 4.616C21.5573 4.75467 21.792 4.864 22.144 4.944L23.288 5.2C23.7947 5.312 24.1467 5.48267 24.344 5.712C24.5467 5.936 24.648 6.216 24.648 6.552C24.648 6.85067 24.5627 7.11733 24.392 7.352C24.2267 7.58133 23.992 7.76 23.688 7.888C23.384 8.016 23.0267 8.08 22.616 8.08C22.0453 8.08 21.5733 7.968 21.2 7.744C20.8267 7.51467 20.5413 7.23733 20.344 6.912L20.904 6.456C21.0587 6.76 21.2773 7.008 21.56 7.2C21.848 7.38667 22.2133 7.48 22.656 7.48C23.0667 7.48 23.3893 7.40533 23.624 7.256C23.864 7.10667 23.984 6.89067 23.984 6.608C23.984 6.43733 23.928 6.28533 23.816 6.152C23.704 6.01333 23.4933 5.90933 23.184 5.84L21.944 5.56C21.4533 5.45333 21.104 5.28 20.896 5.04C20.6933 4.8 20.592 4.52267 20.592 4.208C20.592 3.92533 20.6693 3.66667 20.824 3.432C20.984 3.192 21.2107 3 21.504 2.856C21.8027 2.712 22.1547 2.64 22.56 2.64ZM28.117 2.64C28.6183 2.64 29.0503 2.752 29.413 2.976C29.781 3.19467 30.0637 3.50667 30.261 3.912C30.4637 4.31733 30.565 4.8 30.565 5.36C30.565 5.92 30.4637 6.40267 30.261 6.808C30.0637 7.21333 29.781 7.528 29.413 7.752C29.0503 7.97067 28.6183 8.08 28.117 8.08C27.6157 8.08 27.181 7.97067 26.813 7.752C26.4503 7.528 26.1677 7.21333 25.965 6.808C25.7677 6.40267 25.669 5.92 25.669 5.36C25.669 4.8 25.7677 4.31733 25.965 3.912C26.1677 3.50667 26.4503 3.19467 26.813 2.976C27.181 2.752 27.6157 2.64 28.117 2.64ZM28.117 3.24C27.5677 3.24 27.133 3.42667 26.813 3.8C26.4983 4.17333 26.341 4.69333 26.341 5.36C26.341 6.02133 26.4983 6.54133 26.813 6.92C27.133 7.29333 27.5677 7.48 28.117 7.48C28.6663 7.48 29.0983 7.29333 29.413 6.92C29.733 6.54133 29.893 6.02133 29.893 5.36C29.893 4.69333 29.733 4.17333 29.413 3.8C29.0983 3.42667 28.6663 3.24 28.117 3.24ZM34.1014 2.64C34.6027 2.64 35.0347 2.752 35.3974 2.976C35.7654 3.19467 36.048 3.50667 36.2454 3.912C36.448 4.31733 36.5494 4.8 36.5494 5.36C36.5494 5.92 36.448 6.40267 36.2454 6.808C36.048 7.21333 35.7654 7.528 35.3974 7.752C35.0347 7.97067 34.6027 8.08 34.1014 8.08C33.6 8.08 33.1654 7.97067 32.7974 7.752C32.4347 7.528 32.152 7.21333 31.9494 6.808C31.752 6.40267 31.6534 5.92 31.6534 5.36C31.6534 4.8 31.752 4.31733 31.9494 3.912C32.152 3.50667 32.4347 3.19467 32.7974 2.976C33.1654 2.752 33.6 2.64 34.1014 2.64ZM34.1014 3.24C33.552 3.24 33.1174 3.42667 32.7974 3.8C32.4827 4.17333 32.3254 4.69333 32.3254 5.36C32.3254 6.02133 32.4827 6.54133 32.7974 6.92C33.1174 7.29333 33.552 7.48 34.1014 7.48C34.6507 7.48 35.0827 7.29333 35.3974 6.92C35.7174 6.54133 35.8774 6.02133 35.8774 5.36C35.8774 4.69333 35.7174 4.17333 35.3974 3.8C35.0827 3.42667 34.6507 3.24 34.1014 3.24ZM42.1018 2.72V8H41.3098L39.1018 4.464L38.5418 3.472H38.5338L38.5658 4.272V8H37.9578V2.72H38.7498L40.9498 6.24L41.5178 7.256H41.5258L41.4938 6.448V2.72H42.1018Z" fill="white"/>
<defs>
<clipPath id="clip0">
<rect width="27" height="27" fill="white" transform="translate(0 3)"/>
</clipPath>
</defs>
</svg>
